<svg width="32" height="32" viewBox="0 0 32 32" fill="none" xmlns="http://www.w3.org/2000/svg">
<path d="M0 5.49828C0.676056 2.8591 2.59155 0 4.50704 0C9.23944 0 14.5352 3.95876 14.5352 10.1168C14.5352 17.2646 9.91549 24.8522 3.49296 32L1.12676 30.1306C6.19718 24.0825 9.80282 17.8144 9.80282 12.866C9.80282 11.4364 9.69014 10.5567 9.23944 9.23711L0 5.49828ZM17.4648 5.49828C18.1408 2.8591 20.0563 0 21.9718 0C26.7042 0 32 3.95876 32 10.1168C32 17.2646 27.3803 24.8522 20.9577 32L18.5915 30.1306C23.662 24.0825 27.2676 17.8144 27.2676 12.866C27.2676 11.4364 27.1549 10.5567 26.7042 9.23711L17.4648 5.49828Z" fill="#C9994F"/>
</svg>
